<svg xmlns="http://www.w3.org/2000/svg" width="1200" height="630" viewBox="0 0 1200 630" role="img" aria-labelledby="title desc">
  <title id="title">Mockfolio social preview</title>
  <desc id="desc">Mockfolio portfolio mockup builder social preview image.</desc>
  <defs>
    <linearGradient id="bg" x1="0" y1="0" x2="1" y2="1">
      <stop offset="0" stop-color="#0F172A"/>
      <stop offset="0.55" stop-color="#172554"/>
      <stop offset="1" stop-color="#312E81"/>
    </linearGradient>
    <linearGradient id="accent" x1="0" y1="0" x2="1" y2="1">
      <stop offset="0" stop-color="#38BDF8"/>
      <stop offset="1" stop-color="#8B5CF6"/>
    </linearGradient>
    <filter id="shadow" x="-20%" y="-20%" width="140%" height="140%">
      <feDropShadow dx="0" dy="24" stdDeviation="28" flood-color="#020617" flood-opacity="0.42"/>
    </filter>
  </defs>
  <rect width="1200" height="630" fill="url(#bg)"/>
  <g opacity="0.16">
    <path d="M74 92h1052M74 178h1052M74 264h1052M74 350h1052M74 436h1052M74 522h1052" stroke="#93C5FD"/>
    <path d="M126 56v520M252 56v520M378 56v520M504 56v520M630 56v520M756 56v520M882 56v520M1008 56v520" stroke="#93C5FD"/>
  </g>
  <g transform="translate(86 82)">
    <rect width="64" height="64" rx="18" fill="url(#accent)"/>
    <rect x="16" y="16" width="14" height="14" rx="4" fill="#FFFFFF" opacity="0.95"/>
    <rect x="34" y="16" width="14" height="14" rx="4" fill="#FFFFFF" opacity="0.65"/>
    <rect x="16" y="34" width="14" height="14" rx="4" fill="#FFFFFF" opacity="0.65"/>
    <rect x="34" y="34" width="14" height="14" rx="4" fill="#FFFFFF" opacity="0.38"/>
    <text x="84" y="42" fill="#FFFFFF" font-family="Inter, Pretendard, Arial, sans-serif" font-size="36" font-weight="800">Mockfolio</text>
    <rect x="294" y="14" width="70" height="34" rx="17" fill="#EEF2FF" opacity="0.14"/>
    <text x="315" y="37" fill="#C4B5FD" font-family="Inter, Pretendard, Arial, sans-serif" font-size="16" font-weight="700">Beta</text>
  </g>
  <g transform="translate(88 190)">
    <text fill="#FFFFFF" font-family="Inter, Pretendard, Arial, sans-serif" font-size="68" font-weight="900" letter-spacing="-2">
      <tspan x="0" y="0">반응형 검수부터</tspan>
      <tspan x="0" y="82">포트폴리오 목업까지</tspan>
    </text>
    <text x="0" y="188" fill="#CBD5E1" font-family="Inter, Pretendard, Arial, sans-serif" font-size="27" font-weight="600">
      서버 업로드 없이 브라우저에서만 처리하는 로컬 우선 제작 도구
    </text>
    <g transform="translate(0 244)">
      <rect width="154" height="42" rx="21" fill="#10B981" opacity="0.16"/>
      <text x="24" y="28" fill="#86EFAC" font-family="Inter, Pretendard, Arial, sans-serif" font-size="18" font-weight="800">Local First</text>
      <rect x="174" width="134" height="42" rx="21" fill="#6366F1" opacity="0.2"/>
      <text x="198" y="28" fill="#C4B5FD" font-family="Inter, Pretendard, Arial, sans-serif" font-size="18" font-weight="800">No AI</text>
      <rect x="328" width="170" height="42" rx="21" fill="#38BDF8" opacity="0.16"/>
      <text x="352" y="28" fill="#BAE6FD" font-family="Inter, Pretendard, Arial, sans-serif" font-size="18" font-weight="800">PNG Export</text>
    </g>
  </g>
  <g transform="translate(760 110)" filter="url(#shadow)">
    <rect x="0" y="48" width="260" height="382" rx="28" fill="#F8FAFC"/>
    <rect x="20" y="78" width="220" height="76" rx="16" fill="#EEF2FF"/>
    <rect x="38" y="178" width="184" height="18" rx="9" fill="#CBD5E1"/>
    <rect x="38" y="210" width="146" height="18" rx="9" fill="#E2E8F0"/>
    <rect x="38" y="258" width="184" height="104" rx="18" fill="url(#accent)" opacity="0.9"/>
    <rect x="286" y="0" width="170" height="260" rx="30" fill="#111827"/>
    <rect x="304" y="34" width="134" height="190" rx="18" fill="#F8FAFC"/>
    <rect x="322" y="58" width="98" height="68" rx="14" fill="url(#accent)" opacity="0.92"/>
    <rect x="322" y="148" width="98" height="12" rx="6" fill="#CBD5E1"/>
    <rect x="322" y="174" width="72" height="12" rx="6" fill="#E2E8F0"/>
    <rect x="88" y="390" width="322" height="52" rx="26" fill="#6366F1"/>
    <text x="154" y="423" fill="#FFFFFF" font-family="Inter, Pretendard, Arial, sans-serif" font-size="20" font-weight="800">무료로 시작하기</text>
  </g>
</svg>
